<?xml version="1.0" encoding="UTF-8"?>
<svg id="Layer_1" data-name="Layer 1" xmlns="http://www.w3.org/2000/svg" viewBox="0 0 1225.01 552.23">
  <defs>
    <style>
      .cls-1 {
        fill: #1f1e21;
      }
    </style>
  </defs>
  <path class="cls-1" d="M173.9,312.26c0,20.4.02,40.79-.03,61.19,0,2.04.34,2.96,2.7,3.39,15.71,2.84,31.38,5.94,47.07,8.91,15.49,2.93,30.99,5.79,46.48,8.72,16.92,3.21,33.84,6.48,50.76,9.69,6.44,1.22,12.89,2.39,19.35,3.54,1.44.26,2.21.78,2.16,2.43-.1,4.26-.09,8.52,0,12.78.04,1.64-.45,2.07-2.07,1.75-8.42-1.64-16.86-3.21-25.29-4.8-10.08-1.91-20.15-3.82-30.23-5.73-11.09-2.11-22.18-4.24-33.28-6.32-11.03-2.08-22.07-4.1-33.11-6.18-13.37-2.52-26.73-5.08-40.09-7.62-6.3-1.2-12.59-2.47-18.92-3.51-1.73-.28-2.15-.91-2.14-2.54.07-24.24.09-48.49.12-72.73.03-24.59.08-49.18.03-73.78,0-1.88.61-2.9,2.18-3.8,22.89-13.03,45.76-26.08,68.61-39.17,20.61-11.81,41.2-23.65,61.78-35.51,24.8-14.3,49.6-28.6,74.32-43.02,2.1-1.23,3.15-.91,4.73.66,15.52,15.4,31.12,30.73,46.71,46.06,14.89,14.65,29.8,29.28,44.69,43.92q1.89,1.85-.48,3.21c-3.63,2.07-7.3,4.06-10.88,6.22-1.31.79-2.11.69-3.22-.4-12.85-12.74-25.74-25.43-38.64-38.13-13.89-13.67-27.81-27.32-41.68-41.01-.95-.94-1.61-1.13-2.82-.42-26.94,15.61-53.9,31.18-80.86,46.76-2.39,1.38-2.33,1.33-.34,3.26,4.62,4.47,9.18,8.99,13.77,13.49,22.03,21.63,44.06,43.27,66.09,64.91,1.72,1.69,1.73,1.73-.41,2.96-3.74,2.16-7.55,4.2-11.24,6.44-1.24.75-1.91.55-2.85-.38-8.34-8.26-16.72-16.47-25.1-24.69-18.55-18.2-37.11-36.39-55.63-54.62-1.11-1.1-1.89-1.28-3.34-.44-24.08,13.88-48.2,27.68-72.32,41.49-4.65,2.66-9.29,5.36-14.01,7.9-1.67.9-2.32,1.92-2.31,3.89.08,20.4.05,40.8.05,61.2-.1,0-.21,0-.31,0Z"/>
  <path class="cls-1" d="M378.96,308.42c-.44.71-.2,1.48-.21,2.21-.01,33.95-.03,67.91.03,101.86,0,1.84-.51,2.91-2.12,3.82-5.94,3.36-11.81,6.85-17.69,10.31-1.93,1.14-1.52-.4-1.52-1.33,0-9.22.02-18.44.03-27.67.03-35.21.06-70.42.03-105.63,0-1.84.5-2.87,2.17-3.77,4.66-2.51,9.23-5.2,13.78-7.91,1.1-.66,1.71-.59,2.64.36,13.69,14.06,27.44,28.07,41.17,42.09q1.69,1.73,2.58-.5c11.4-28.71,22.81-57.41,34.17-86.14.66-1.66,1.59-2.79,3.17-3.62,4.19-2.21,8.31-4.56,12.45-6.85q2.38-1.32,2.38,1.49c.02,22.85.04,45.69.06,68.54.02,21.52.02,43.04.08,64.55,0,1.36-.35,2.14-1.59,2.8-4.38,2.3-8.73,4.67-13.01,7.14-1.55.89-1.85.55-1.85-1.09-.04-20.89-.13-41.78-.19-62.67-.03-11.39-.03-22.78-.07-34.16,0-.64.31-1.39-.47-2.08-2.31,5.67-4.58,11.26-6.85,16.85-7.8,19.26-15.6,38.51-23.4,57.77-.13.32-.26.65-.4.97-1.44,3.25-3.88,3.76-6.4,1.25-8.31-8.28-16.6-16.59-24.89-24.9-4.25-4.25-8.48-8.5-12.74-12.74-.37-.37-.63-.93-1.33-.94Z"/>
  <path class="cls-1" d="M718.46,321.19v-2.47c0-30.6.02-61.2-.04-91.8,0-1.97.44-2.65,2.51-2.58,4.68.16,9.36.14,14.04,0,1.89-.05,2.46.42,2.45,2.4-.08,22.36-.05,44.71-.05,67.07,0,21.73-.03,43.46.05,65.18,0,1.96-.61,2.22-2.44,2.47-5.75.8-9.2-1.51-12.68-6.18-22.14-29.66-44.66-59.04-67.06-88.51-.41-.54-.78-1.11-1.22-1.74-.87.7-.52,1.52-.52,2.2-.02,29.83-.01,59.66-.02,89.5q0,2.7-2.73,2.7c-4.54,0-9.09-.09-13.62.04-1.87.05-2.54-.38-2.5-2.39.14-6.01.05-12.02.05-18.02,0-37.38.01-74.75-.04-112.13,0-1.95.4-2.75,2.5-2.58,2.57.21,5.55-.67,7.63.36,2.08,1.03,3.31,3.82,4.87,5.88,22.62,29.83,45.22,59.67,67.84,89.5.16.21.34.4.97,1.11Z"/>
  <path class="cls-1" d="M969.28,357.69c-2.74-6.18-5.41-12.4-8.1-18.6-15.76-36.32-31.62-72.6-47.15-109.03-1.92-4.49-4.08-6.7-8.92-5.68-.39.07-.84.05-1.25,0-1.64-.29-2.44.39-3.12,1.94-9.94,22.82-19.98,45.58-30,68.38-9.19,20.95-18.35,41.89-27.55,62.82-.66,1.51-.62,2.03,1.25,1.99,5.52-.11,11.04-.11,16.57-.04,1.42.02,2.05-.46,2.6-1.76,3.63-8.62,7.37-17.17,11.03-25.77.57-1.35,1.3-1.83,2.81-1.83,9.56.07,19.13.05,28.71.05s18.86.05,28.29-.05c1.83-.02,2.71.57,3.4,2.23,3.49,8.37,7.14,16.67,10.6,25.03.69,1.62,1.55,2.14,3.28,2.1,5.43-.09,10.88-.04,16.33.07,1.66.04,1.91-.34,1.23-1.85ZM926.99,311.66c-6.98-.02-13.96-.02-20.95-.02s-13.68-.02-20.52.04c-1.66.02-2.1-.27-1.35-1.98,7.14-16.56,14.23-33.15,21.32-49.75.2-.43.2-1.05.8-1.09.66-.04.57.68.75,1.07,7.05,16.67,14.09,33.38,21.2,50.03.71,1.67.09,1.71-1.25,1.69Z"/>
  <path class="cls-1" d="M1022.92,361.96c-21.42-.77-38.46-10.33-50.33-29.02-.54-.84-.71-1.38.21-2.08,4.16-3.19,7.82-6.96,11.65-10.51,1.34-1.24,1.9-1.19,2.9.33,5.93,9.01,13.53,16.17,23.8,19.94,9.88,3.63,19.67,3.32,28.79-2.27,9.55-5.86,9.72-16.36,6.66-23.13-1.25-2.76-3.53-4.62-5.98-6.29-5.94-4.06-12.66-6.38-19.37-8.76-8.55-3.03-17.03-6.23-24.68-11.21-6.34-4.12-12.06-8.88-14.61-16.37-6.23-18.28.18-39.45,22.08-47.48,20.26-7.43,46.58-2.56,61.34,19.34.7,1.05.67,1.55-.23,2.41-3.68,3.52-7.34,7.08-10.88,10.75-1.26,1.31-1.92,1.28-2.95-.21-4.44-6.37-9.99-11.51-17.36-14.24-9.12-3.38-18.22-3.49-26.85,1.54-6.97,4.06-9.62,12.21-6.72,19.62.93,2.37,2.56,4.1,4.57,5.57,6.09,4.46,13.06,7.12,20.01,9.84,8.24,3.22,16.74,5.88,24.34,10.51,14.5,8.83,19.85,20.87,18.07,37.96-1.96,18.85-16.82,29.62-32.38,32.58-1.85.35-3.72.59-5.6.77-1.94.19-3.9.25-6.52.41Z"/>
  <path class="cls-1" d="M617.3,356.88c-12.02-27.77-24.03-55.52-36.03-83.29-6.84-15.8-13.68-31.6-20.47-47.42-.57-1.34-1.26-1.96-2.8-1.83-2.01.14-4.06.11-6.07,0-1.25-.05-1.92.36-2.37,1.5-.91,2.28-1.91,4.49-2.89,6.73-18.19,41.73-36.35,83.47-54.58,125.16-.75,1.69-.25,1.83,1.25,1.82,5.38-.09,10.76-.14,16.12-.07,1.51.02,2.19-.46,2.78-1.85,3.6-8.53,7.34-17.03,10.92-25.56.62-1.46,1.37-1.96,2.94-1.96,9.58.09,19.15.04,28.71.05,9.44,0,18.86.05,28.29-.05,1.83-.02,2.71.53,3.4,2.21,3.51,8.44,7.12,16.81,10.72,25.22.43,1.03.75,1.96,2.3,1.92,5.43-.12,10.88-.07,16.33-.16,2.33-.04,2.39-.21,1.44-2.42ZM575.46,311.68c-6.91-.07-13.82-.04-20.73-.04s-13.84-.02-20.75.04c-1.6,0-1.92-.36-1.25-1.91,7.14-16.56,14.23-33.17,21.32-49.75.2-.43.18-1.12.75-1.16.77-.05.68.75.87,1.23,7.04,16.55,14.02,33.09,21.11,49.62.75,1.75.34,1.96-1.32,1.96Z"/>
  <path class="cls-1" d="M794.98,301.19c0-18.65-.03-37.29.04-55.94,0-1.92-.5-2.43-2.43-2.41-11.8.09-23.61.02-35.41.09-1.6,0-2.19-.34-2.15-2.05.12-4.89.09-9.78.01-14.66-.02-1.48.46-1.86,1.91-1.85,31.78.04,63.56.04,95.34,0,1.43,0,1.94.36,1.91,1.85-.08,4.96-.09,9.92,0,14.87.03,1.53-.54,1.84-1.94,1.83-11.87-.05-23.75.02-35.62-.08-1.99-.02-2.57.48-2.57,2.52.06,37.15.03,74.31.09,111.46,0,2.1-.46,2.75-2.64,2.66-4.74-.19-9.5-.15-14.25-.02-1.85.05-2.36-.48-2.35-2.34.07-18.65.04-37.29.04-55.94Z"/>
  <path class="cls-1" d="M511.21,412.96c-1.25-.66-1.32-.91-.16-1.73,3.01-2.19,4.01-5.27,3.44-8.85-.57-3.65-2.83-5.97-6.2-7.25-1.92-.73-3.94-1-5.97-1-4.47-.04-8.94,0-13.41-.05-1.3-.02-1.87.32-1.87,1.76.05,11.52.05,23.05,0,34.57,0,1.48.61,1.75,1.87,1.71,2.65-.05,5.31-.02,7.96-.02v-.05c2.6,0,5.18.07,7.77-.02,2.4-.05,4.67-.71,6.75-1.96,3.33-1.96,5.18-4.77,5.11-8.73-.07-3.88-1.98-6.63-5.29-8.39ZM494.13,399.56c1.21-1.05,3.49-.25,5.29-.3,1.53-.04,3.06-.07,4.58.32,2.92.75,4.29,2.55,4.17,5.65-.09,2.6-1.76,4.67-4.49,4.92-2.97.27-6,.12-8.99.18-.84.02-1.05-.45-1.05-1.19.04-1.39.02-2.8.02-4.51.27-1.51-.87-3.88.48-5.06ZM505.88,426.39c-3.76,1.1-7.64.41-11.45.5-.75.02-.78-.64-.78-1.23v-5.13c.25-1.6-.87-4.08.45-5.31,1.19-1.12,3.6-.32,5.47-.32,2.08-.02,4.19-.25,6.22.5,2.69.98,4.2,2.94,4.2,5.61s-1.32,4.58-4.1,5.38Z"/>
  <path class="cls-1" d="M962.52,411.01c2.51,0,5.03.07,7.54-.03,1.64-.07,2.19.51,2.18,2.17-.06,12.25-9,20.47-21.49,19.67-11.51-.74-19.4-10.86-17.62-22.89,1.16-7.84,5.76-13.16,13.24-15.47,7.94-2.45,15.16-.75,21.16,5.27.97.97,1.01,1.75-.17,2.52-.17.11-.32.26-.48.4-2.58,2.21-2.53,2.16-5.18,0-4.32-3.53-9.19-4.39-14.29-2.11-5.3,2.37-7.79,6.77-7.85,12.52-.06,5.74,2.28,10.29,7.55,12.7,4.99,2.28,9.95,1.7,14.36-1.79,1.98-1.57,3.18-3.65,3.84-6.08.34-1.25.07-1.79-1.35-1.76-3.07.08-6.15-.05-9.21.06-1.46.05-2.07-.38-1.87-1.85.06-.48.06-.98,0-1.46-.17-1.45.41-1.95,1.89-1.89,2.58.12,5.17.03,7.75.03Z"/>
  <path class="cls-1" d="M1059.19,419.96c0-3.33,0-6.66,0-9.99,0-4.61.05-9.22-.03-13.83-.03-1.47.23-2.1,1.91-2.08,4.51.06,4.51-.02,4.51,4.55,0,10.4.02,20.81-.03,31.21,0,.91.71,2.34-.76,2.67-1.39.31-2.76.27-3.91-1.16-4.24-5.27-8.63-10.42-12.96-15.61-2.58-3.09-5.16-6.18-7.75-9.28-.79.56-.45,1.24-.46,1.8-.02,7.26-.06,14.53.03,21.79.02,1.67-.45,2.16-2.12,2.12-4.35-.1-4.36-.02-4.36-4.44,0-10.4-.01-20.81.02-31.21,0-.82-.53-2.09.73-2.31,1.31-.23,2.71-.41,3.82.95,3.56,4.39,7.21,8.69,10.84,13.03,3.35,4,6.7,7.99,10.05,11.99.16-.07.33-.13.49-.2Z"/>
  <path class="cls-1" d="M908.62,420.13c.69-.65.4-1.39.4-2.04.02-7.26.06-14.53-.03-21.79-.02-1.76.52-2.28,2.26-2.24,4.2.11,4.21.03,4.2,4.2,0,10.61.01,21.23-.03,31.84,0,.82.56,2.12-.61,2.37-1.35.28-2.82.46-3.99-.99-3.81-4.72-7.75-9.34-11.63-14-3.06-3.67-6.13-7.34-9.21-11.03-.76.63-.47,1.3-.47,1.88-.02,7.26-.05,14.53.02,21.79.02,1.57-.45,2.03-2.02,2.02-4.43-.05-4.43.02-4.43-4.31,0-10.41-.01-20.81.02-31.22,0-.82-.53-2.12.56-2.38,1.34-.32,2.83-.53,4,.92,3.06,3.8,6.24,7.51,9.37,11.26,3.62,4.34,7.22,8.68,10.84,13.02.21.26.49.46.74.69Z"/>
  <path class="cls-1" d="M581.2,406.99c0-3.77.03-7.55-.02-11.32-.02-1.15.32-1.56,1.54-1.6,5.09-.18,5.08-.22,5.08,4.78,0,6.08-.07,12.16.03,18.23.07,4.51,2.59,7.96,6.5,9.33,4.09,1.44,8.83.33,11.56-2.73,1.7-1.91,2.44-4.19,2.44-6.73,0-6.92.06-13.83-.03-20.75-.02-1.66.45-2.19,2.12-2.14,5.1.17,4.28-.68,4.31,4.33.04,6.29.09,12.58-.03,18.86-.14,7.63-4.84,13.46-12.03,15.18-8.2,1.96-16.09-1.21-19.65-7.93-1.16-2.19-1.77-4.55-1.8-7.03-.04-3.49,0-6.99,0-10.48-.01,0-.03,0-.04,0Z"/>
  <path class="cls-1" d="M989.06,413.05c0-5.65.05-11.31-.03-16.96-.02-1.56.43-2.04,2.01-2.03,7.54.07,15.08.07,22.62,0,1.61-.02,2.03.54,1.99,2.06-.12,4.11.35,3.48-3.42,3.5-4.89.02-9.77.05-14.66-.02-1.39-.02-2.03.26-1.96,1.81.12,2.37.11,4.75,0,7.12-.08,1.55.57,1.85,1.96,1.82,3.91-.08,7.82.04,11.73-.07,1.55-.04,2.24.39,2.03,1.98-.04.27-.04.56,0,.84.31,1.96-.39,2.68-2.47,2.58-3.83-.17-7.68,0-11.52-.08-1.26-.03-1.75.32-1.71,1.62.07,2.65.07,5.31,0,7.96-.03,1.25.49,1.49,1.62,1.47,5.44-.06,10.89.03,16.33-.07,1.62-.03,2.21.37,2.14,2.09-.17,4.05.45,3.41-3.46,3.43-7.05.03-14.1-.05-21.15.05-1.71.02-2.1-.54-2.08-2.14.08-5.65.03-11.31.03-16.96Z"/>
  <path class="cls-1" d="M674.13,413.02c0-5.65.05-11.31-.03-16.96-.02-1.59.5-2.01,2.04-2,7.54.07,15.08.08,22.62,0,1.65-.02,1.99.59,1.96,2.07-.11,4.3.24,3.46-3.41,3.49-4.96.04-9.91.05-14.87-.02-1.39-.02-1.82.41-1.77,1.78.1,2.44.09,4.89,0,7.33-.05,1.32.45,1.66,1.69,1.64,3.98-.07,7.96.03,11.94-.06,1.59-.04,2.27.34,2.22,2.09-.09,3.26,0,3.26-3.27,3.26-3.63,0-7.26.04-10.89-.03-1.28-.03-1.72.37-1.68,1.67.08,2.58.09,5.17,0,7.75-.05,1.33.47,1.64,1.71,1.63,5.37-.06,10.75.06,16.12-.08,1.89-.05,2.55.53,2.28,2.35-.09.61-.04,1.26,0,1.88.06,1.01-.42,1.32-1.39,1.32-7.96-.03-15.92-.04-23.87,0-1.58,0-1.39-.96-1.39-1.94,0-5.72,0-11.45,0-17.17Z"/>
  <path class="cls-1" d="M863.56,407.16c0,2.86-.12,5.73.02,8.59.54,10.59-7.16,18.6-19.66,16.93-7.87-1.05-13.26-6.6-13.61-14.56-.33-7.53-.12-15.08-.15-22.62,0-.66.03-1.34.9-1.37,1.53-.05,3.08-.11,4.61-.01,1.26.08.96,1.17.97,1.95.02,6.63.02,13.27.02,19.9,0,2.56.43,5,2.04,7.1,2.65,3.46,7.28,4.83,11.7,3.46,4.16-1.29,6.75-4.74,6.82-9.5.1-6.84.11-13.69,0-20.53-.03-1.96.53-2.52,2.47-2.45,3.89.15,3.89.05,3.89,3.88,0,3.07,0,6.14,0,9.22Z"/>
  <path class="cls-1" d="M757.15,432.85c-5.7-.03-10.64-1.86-14.64-6.05-.94-.98-1.32-1.78-.02-2.69.17-.12.28-.31.42-.46,2.23-2.36,2.18-2.29,4.65-.21,3.64,3.06,7.69,4.8,12.55,3.36,2.66-.79,4.24-2.43,4.29-4.54.06-2.5-1.35-4.04-3.56-4.88-3.38-1.29-6.84-2.4-10.18-3.79-2.8-1.17-5.36-2.79-6.57-5.8-1.87-4.66.04-9.79,4.56-12.41,5.75-3.33,15.32-2.18,20.23,2.34,1.37,1.25,1.71,2.27.05,3.47-.39.28-.73.66-1.03,1.04-.87,1.11-1.59,1.2-2.67.1-2.48-2.52-5.57-3.62-9.12-3.39-.98.06-1.94.26-2.84.66-1.69.76-2.97,1.89-3.11,3.86-.14,1.9.99,3.17,2.46,4.09,2.09,1.31,4.5,1.85,6.8,2.64,2.17.75,4.33,1.53,6.34,2.69,4.07,2.35,5.88,5.89,5.26,10.51-.62,4.62-3.74,7.14-7.89,8.61-1.93.68-3.94.91-5.99.86Z"/>
  <path class="cls-1" d="M566.82,429.66c-5.27-11.2-10.56-22.43-15.82-33.65-.57-1.23-1.14-1.99-2.74-1.99-1.62.02-2.12.91-2.67,2.1-3.42,7.25-6.88,14.46-10.31,21.69-1.98,4.15-3.95,8.3-5.9,12.47-.27.59-1.09,1.6.3,1.75,1.78.18,3.69.32,5.4-.11,1.3-.32,1.3-2.14,1.91-3.28.46-.86.91-1.75,1.19-2.67.36-1.23,1.12-1.57,2.33-1.55,3.9.05,7.84.32,11.72-.05,3.99-.39,6.45.73,7.37,4.79.53,2.33,1.92,3.67,4.19,2.94h1.41c2.73,0,2.76-.04,1.62-2.44ZM553.64,419.51c-1.8-.07-3.62-.02-5.41-.02-1.89,0-3.76-.02-5.65,0-.91.02-1.53-.05-.98-1.26,2.05-4.49,4.04-8.99,6.06-13.5.12-.3.21-.71.68-.62.36.07.46.41.62.75,1.92,4.38,3.85,8.76,5.81,13.15.55,1.25.14,1.57-1.12,1.51Z"/>
  <path class="cls-1" d="M796.02,415.83c0-4.81-.04-9.63.03-14.44.02-1.37-.39-1.83-1.77-1.79-2.93.09-5.86-.02-8.79.06-1.33.04-1.88-.33-1.85-1.75.11-4.55-.44-3.77,3.75-3.79,8.44-.03,16.89.04,25.33-.05,1.75-.02,2.48.48,2.23,2.23-.07.48-.06.98,0,1.46.17,1.46-.42,1.96-1.9,1.9-2.79-.11-5.58.06-8.37-.07-1.62-.08-2.14.35-2.12,2.06.09,9.35-.01,18.7.09,28.04.02,1.94-.49,2.52-2.44,2.45-4.18-.14-4.18-.04-4.18-4.18,0-4.05,0-8.09,0-12.14Z"/>
  <path class="cls-1" d="M640.74,410.38c0,4.74.05,9.49-.03,14.23-.03,1.53.37,2.07,1.98,2.03,4.53-.11,9.07.03,13.6-.08,1.63-.04,2.21.38,2.14,2.09-.17,4.05.47,3.43-3.44,3.45-6.21.03-12.42-.04-18.63.04-1.65.02-2.3-.32-2.29-2.16.09-11.3.07-22.6,0-33.9,0-1.58.48-2.03,2.03-2.02,4.62.02,4.62-.04,4.62,4.6,0,3.91,0,7.81,0,11.72Z"/>
  <path class="cls-1" d="M724.83,413.23c0,5.65-.06,11.3.04,16.94.03,1.59-.48,2-2.02,1.99-4.56-.04-4.56.03-4.56-4.6,0-10.46.03-20.92-.04-31.37-.01-1.62.37-2.17,2.08-2.14,4.5.09,4.5,0,4.5,4.53,0,4.88,0,9.76,0,14.64Z"/>
</svg>